<?xml version="1.0" encoding="UTF-8"?>
<svg id="Layer_1" data-name="Layer 1" xmlns="http://www.w3.org/2000/svg" version="1.1" viewBox="0 0 1000 1000">
  <defs>
    <style>
      .cls-1 {
        fill: #fff;
        width: 20px;
      }
    </style>
  </defs>
  <path class="cls-1" d="M242.6,860h152.1c32.3,0,61.5,1.1,87.3,0h209.2c47.2,0,82.6-2.4,106.4-6.9,23.7-4.7,45.5-12.4,65.4-23.1,33-17.9,58.7-41.8,76.8-72,18-30,27.2-63.6,27.2-100.7s-9-70.5-27.1-100.5c-18-30-43.5-54.1-76.4-72-20.7-11.3-43.9-19.5-69.4-24.3-25.5-5-61.8-7.5-108.7-7.5h-16.2c-19.3,0-26.5-24.6-10.8-35.8.2-.2.4-.3.6-.5,37.3-27,56-62.5,56-106.7s-27.4-105.1-81.8-131.2c-54.6-26.3-148.3-39.3-281.4-39.3h-109.2v720.5ZM326.1,796.2c-12.8-11.1-19.2-41.5-19.2-91v-208.2c3.5,0,9-.1,16.2-.4,7.4-.4,13.1-.6,16.9-.6,77.3,0,132.9,12.2,166.5,36.7,15.3,11.1,26.9,25.4,35.1,43.1,10.1,21.1,15.1,47.2,15.1,78.1s-5,58.8-15.1,81.3c-6.4,14.3-14.7,26.7-25,37.1-26.7,27.2-65.4,40.9-116.1,40.9s-61.6-5.7-74.6-17ZM809.8,526c20.5,29.5,30.8,73.1,30.8,131.3s-9.9,102.4-29.6,130.9c-19.6,28.3-49.8,42.7-90.7,42.7s-42.6-3.1-51-9.3c-1.9-1.4-3.6-3.3-5-5.8-5.1-8.3-7.6-22.8-7.6-43.1v-231.8c0-9.9.6-18.3,1.8-25.4,1.8-12.1,5.6-20.1,10.8-24,8.3-6.3,24.7-9.3,49.1-9.3,40.4,0,70.8,14.6,91.2,43.9ZM495.1,225c22.6,22.1,33.9,52.4,33.9,90.9s-13.3,79.6-40,99.4c-26.7,19.7-72.1,29.6-136.2,29.6s-21.2-.1-27.8-.3c-6.5-.1-12.6-.4-18-.7v-149c0-47.9,6.2-77.1,19-87.5,12.6-10.4,38.3-15.6,77.1-15.6s69.4,11.1,92.1,33.2Z"/>
  <path class="cls-1" d="M190.8,139.5H51.6c-10.8,0-19.5,8.8-19.5,19.6v14.4c0,10.3,8,18.8,18.3,19.5l11.6.8c24.7,1.7,41.5,7.9,50.5,18.8,8.9,11,13.3,38.4,13.3,82.4v545.6c0,10.8,8.7,19.6,19.5,19.6h45.5V139.5Z"/>
</svg>